<svg preserveAspectRatio="none" width="100%" height="100%" overflow="visible" style="display: block;" viewBox="0 0 16.6667 16.6667" fill="none" xmlns="http://www.w3.org/2000/svg">
<g id="Container">
<path id="Icon" d="M11.25 12.4167L12.4167 11.25C12.5 11.1667 12.5417 11.0694 12.5417 10.9583C12.5417 10.8472 12.5 10.75 12.4167 10.6667L9.58333 7.8125C9.63889 7.65972 9.68056 7.50694 9.70833 7.35417C9.73611 7.20139 9.75 7.02778 9.75 6.83333C9.75 6.04167 9.46875 5.36458 8.90625 4.80208C8.34375 4.23958 7.66667 3.95833 6.875 3.95833C6.63889 3.95833 6.40278 3.98958 6.16667 4.05208C5.93056 4.11458 5.70139 4.20139 5.47917 4.3125L7.4375 6.27083L6.27083 7.4375L4.3125 5.47917C4.20139 5.70139 4.11458 5.93056 4.05208 6.16667C3.98958 6.40278 3.95833 6.63889 3.95833 6.875C3.95833 7.66667 4.23958 8.34375 4.80208 8.90625C5.36458 9.46875 6.04167 9.75 6.83333 9.75C7.01389 9.75 7.18403 9.73611 7.34375 9.70833C7.50347 9.68056 7.65972 9.63889 7.8125 9.58333L10.6667 12.4167C10.75 12.5 10.8472 12.5417 10.9583 12.5417C11.0694 12.5417 11.1667 12.5 11.25 12.4167V12.4167M8.33333 16.6667C7.18056 16.6667 6.09722 16.4479 5.08333 16.0104C4.06944 15.5729 3.1875 14.9792 2.4375 14.2292C1.6875 13.4792 1.09375 12.5972 0.65625 11.5833C0.21875 10.5694 0 9.48611 0 8.33333C0 7.18056 0.21875 6.09722 0.65625 5.08333C1.09375 4.06944 1.6875 3.1875 2.4375 2.4375C3.1875 1.6875 4.06944 1.09375 5.08333 0.65625C6.09722 0.21875 7.18056 0 8.33333 0C9.48611 0 10.5694 0.21875 11.5833 0.65625C12.5972 1.09375 13.4792 1.6875 14.2292 2.4375C14.9792 3.1875 15.5729 4.06944 16.0104 5.08333C16.4479 6.09722 16.6667 7.18056 16.6667 8.33333C16.6667 9.48611 16.4479 10.5694 16.0104 11.5833C15.5729 12.5972 14.9792 13.4792 14.2292 14.2292C13.4792 14.9792 12.5972 15.5729 11.5833 16.0104C10.5694 16.4479 9.48611 16.6667 8.33333 16.6667V16.6667" fill="var(--fill-0, #57344F)"/>
</g>
</svg>
